# xmcd
#
# Track frame offsets: 
#        182
#        20000
#        37542
#        66207
#        88707
#        108432
#        122882
#        141357
#        167307
#        188582
#        214032
#
# Disc length: 3102 seconds
#
# Revision: 1
# Processed by: cddbd v1.4PL0 Copyright (c) Steve Scherf et al.
# Submitted via: ExactAudioCopy v0.95a3
#
DISCID=8d0c1c0b
DTITLE=Various Artist - Jubilee
DYEAR=1990
DGENRE=New Age
TTITLE0=Büdi Sibert - Reigen seliger Geister
TTITLE1=Friedemann - The Eye Of The Dragonfly
TTITLE2=Ralf Illenberger's Circle - Big Change
TTITLE3=Serah and Friedemann - White Rose
TTITLE4=The Silent Jazz Ensemble - Aurora
TTITLE5=Elena Ledda - Sett'ispadas
TTITLE6=Büdi Siebert - Sing
TTITLE7=Rabenschlag - Speaking To You
TTITLE8=Friedemann - November Winds
TTITLE9=Serah and Friedemann - Flight Of The Stork
TTITLE10=Ralf Illenberger's Circle - A Sunday At Home
EXTD=Biber 66421 YEAR: 1990
EXTT0=
EXTT1=
EXTT2=
EXTT3=
EXTT4=
EXTT5=
EXTT6=
EXTT7=
EXTT8=
EXTT9=
EXTT10=
PLAYORDER=
